<svg id="visual" viewBox="0 0 900 600" width="900" height="600" xmlns="http://www.w3.org/2000/svg" xmlns:xlink="http://www.w3.org/1999/xlink" version="1.1"><rect x="0" y="0" width="900" height="600" fill="#001220"></rect><defs><linearGradient id="grad1_0" x1="33.3%" y1="100%" x2="100%" y2="0%"><stop offset="20%" stop-color="#001220" stop-opacity="1"></stop><stop offset="80%" stop-color="#001220" stop-opacity="1"></stop></linearGradient></defs><defs><linearGradient id="grad2_0" x1="0%" y1="100%" x2="66.7%" y2="0%"><stop offset="20%" stop-color="#001220" stop-opacity="1"></stop><stop offset="80%" stop-color="#001220" stop-opacity="1"></stop></linearGradient></defs><g transform="translate(900, 600)"><path d="M-297.5 0C-288.8 -51.2 -280 -102.4 -256.3 -148C-232.6 -193.6 -194 -233.6 -148.7 -257.6C-103.5 -281.6 -51.8 -289.5 0 -297.5L0 0Z" fill="#FBAE3C"></path></g><g transform="translate(0, 0)"><path d="M297.5 0C268.9 39.7 240.3 79.5 219.1 126.5C197.9 173.5 184 227.9 148.7 257.6C113.4 287.3 56.7 292.4 0 297.5L0 0Z" fill="#FBAE3C"></path></g></svg>