<svg id="visual" viewBox="0 0 900 600" width="900" height="600" xmlns="http://www.w3.org/2000/svg" xmlns:xlink="http://www.w3.org/1999/xlink" version="1.1"><rect x="0" y="0" width="900" height="600" fill="#00070d"></rect><path d="M0 423L13.7 421.7C27.3 420.3 54.7 417.7 82 413.3C109.3 409 136.7 403 163.8 401C191 399 218 401 245.2 403.8C272.3 406.7 299.7 410.3 327 408.5C354.3 406.7 381.7 399.3 409 397C436.3 394.7 463.7 397.3 491 403.7C518.3 410 545.7 420 573 423C600.3 426 627.7 422 654.8 418C682 414 709 410 736.2 411.5C763.3 413 790.7 420 818 422C845.3 424 872.7 421 886.3 419.5L900 418L900 601L886.3 601C872.7 601 845.3 601 818 601C790.7 601 763.3 601 736.2 601C709 601 682 601 654.8 601C627.7 601 600.3 601 573 601C545.7 601 518.3 601 491 601C463.7 601 436.3 601 409 601C381.7 601 354.3 601 327 601C299.7 601 272.3 601 245.2 601C218 601 191 601 163.8 601C136.7 601 109.3 601 82 601C54.7 601 27.3 601 13.7 601L0 601Z" fill="#07329f"></path><path d="M0 454L13.7 449.2C27.3 444.3 54.7 434.7 82 431.8C109.3 429 136.7 433 163.8 431.8C191 430.7 218 424.3 245.2 428.3C272.3 432.3 299.7 446.7 327 451.8C354.3 457 381.7 453 409 452.2C436.3 451.3 463.7 453.7 491 451.3C518.3 449 545.7 442 573 440.7C600.3 439.3 627.7 443.7 654.8 440.3C682 437 709 426 736.2 424.3C763.3 422.7 790.7 430.3 818 431.2C845.3 432 872.7 426 886.3 423L900 420L900 601L886.3 601C872.7 601 845.3 601 818 601C790.7 601 763.3 601 736.2 601C709 601 682 601 654.8 601C627.7 601 600.3 601 573 601C545.7 601 518.3 601 491 601C463.7 601 436.3 601 409 601C381.7 601 354.3 601 327 601C299.7 601 272.3 601 245.2 601C218 601 191 601 163.8 601C136.7 601 109.3 601 82 601C54.7 601 27.3 601 13.7 601L0 601Z" fill="#0049ad"></path><path d="M0 458L13.7 457.7C27.3 457.3 54.7 456.7 82 454.8C109.3 453 136.7 450 163.8 447.2C191 444.3 218 441.7 245.2 439.3C272.3 437 299.7 435 327 434.5C354.3 434 381.7 435 409 442C436.3 449 463.7 462 491 467.7C518.3 473.3 545.7 471.7 573 466.5C600.3 461.3 627.7 452.7 654.8 454C682 455.3 709 466.7 736.2 468.2C763.3 469.7 790.7 461.3 818 454.2C845.3 447 872.7 441 886.3 438L900 435L900 601L886.3 601C872.7 601 845.3 601 818 601C790.7 601 763.3 601 736.2 601C709 601 682 601 654.8 601C627.7 601 600.3 601 573 601C545.7 601 518.3 601 491 601C463.7 601 436.3 601 409 601C381.7 601 354.3 601 327 601C299.7 601 272.3 601 245.2 601C218 601 191 601 163.8 601C136.7 601 109.3 601 82 601C54.7 601 27.3 601 13.7 601L0 601Z" fill="#005db7"></path><path d="M0 489L13.7 488.3C27.3 487.7 54.7 486.3 82 480.7C109.3 475 136.7 465 163.8 461C191 457 218 459 245.2 460.5C272.3 462 299.7 463 327 462.7C354.3 462.3 381.7 460.7 409 458.3C436.3 456 463.7 453 491 454.2C518.3 455.3 545.7 460.7 573 461C600.3 461.3 627.7 456.7 654.8 458.8C682 461 709 470 736.2 473.8C763.3 477.7 790.7 476.3 818 473C845.3 469.7 872.7 464.3 886.3 461.7L900 459L900 601L886.3 601C872.7 601 845.3 601 818 601C790.7 601 763.3 601 736.2 601C709 601 682 601 654.8 601C627.7 601 600.3 601 573 601C545.7 601 518.3 601 491 601C463.7 601 436.3 601 409 601C381.7 601 354.3 601 327 601C299.7 601 272.3 601 245.2 601C218 601 191 601 163.8 601C136.7 601 109.3 601 82 601C54.7 601 27.3 601 13.7 601L0 601Z" fill="#0070be"></path><path d="M0 505L13.7 504.8C27.3 504.7 54.7 504.3 82 503.3C109.3 502.3 136.7 500.7 163.8 498.3C191 496 218 493 245.2 492C272.3 491 299.7 492 327 490.3C354.3 488.7 381.7 484.3 409 484.2C436.3 484 463.7 488 491 491.3C518.3 494.7 545.7 497.3 573 496.8C600.3 496.3 627.7 492.7 654.8 489.2C682 485.7 709 482.3 736.2 483.5C763.3 484.7 790.7 490.3 818 492.5C845.3 494.7 872.7 493.3 886.3 492.7L900 492L900 601L886.3 601C872.7 601 845.3 601 818 601C790.7 601 763.3 601 736.2 601C709 601 682 601 654.8 601C627.7 601 600.3 601 573 601C545.7 601 518.3 601 491 601C463.7 601 436.3 601 409 601C381.7 601 354.3 601 327 601C299.7 601 272.3 601 245.2 601C218 601 191 601 163.8 601C136.7 601 109.3 601 82 601C54.7 601 27.3 601 13.7 601L0 601Z" fill="#0082c3"></path><path d="M0 493L13.7 498.2C27.3 503.3 54.7 513.7 82 517.5C109.3 521.3 136.7 518.7 163.8 518.3C191 518 218 520 245.2 518.8C272.3 517.7 299.7 513.3 327 513.5C354.3 513.7 381.7 518.3 409 519C436.3 519.7 463.7 516.3 491 517C518.3 517.7 545.7 522.3 573 521C600.3 519.7 627.7 512.3 654.8 511.3C682 510.3 709 515.7 736.2 518.3C763.3 521 790.7 521 818 517.3C845.3 513.7 872.7 506.3 886.3 502.7L900 499L900 601L886.3 601C872.7 601 845.3 601 818 601C790.7 601 763.3 601 736.2 601C709 601 682 601 654.8 601C627.7 601 600.3 601 573 601C545.7 601 518.3 601 491 601C463.7 601 436.3 601 409 601C381.7 601 354.3 601 327 601C299.7 601 272.3 601 245.2 601C218 601 191 601 163.8 601C136.7 601 109.3 601 82 601C54.7 601 27.3 601 13.7 601L0 601Z" fill="#0094ca"></path><path d="M0 509L13.7 512.8C27.3 516.7 54.7 524.3 82 528C109.3 531.7 136.7 531.3 163.8 532.3C191 533.3 218 535.7 245.2 533.5C272.3 531.3 299.7 524.7 327 523.7C354.3 522.7 381.7 527.3 409 526.2C436.3 525 463.7 518 491 517.3C518.3 516.7 545.7 522.3 573 522.8C600.3 523.3 627.7 518.7 654.8 519.3C682 520 709 526 736.2 529.7C763.3 533.3 790.7 534.7 818 533.7C845.3 532.7 872.7 529.3 886.3 527.7L900 526L900 601L886.3 601C872.7 601 845.3 601 818 601C790.7 601 763.3 601 736.2 601C709 601 682 601 654.8 601C627.7 601 600.3 601 573 601C545.7 601 518.3 601 491 601C463.7 601 436.3 601 409 601C381.7 601 354.3 601 327 601C299.7 601 272.3 601 245.2 601C218 601 191 601 163.8 601C136.7 601 109.3 601 82 601C54.7 601 27.3 601 13.7 601L0 601Z" fill="#00a4c8"></path><path d="M0 532L13.7 534C27.3 536 54.7 540 82 541.2C109.3 542.3 136.7 540.7 163.8 538C191 535.3 218 531.7 245.2 531.8C272.3 532 299.7 536 327 540.5C354.3 545 381.7 550 409 551.3C436.3 552.7 463.7 550.3 491 548.5C518.3 546.7 545.7 545.3 573 543C600.3 540.7 627.7 537.3 654.8 537.3C682 537.3 709 540.7 736.2 541.5C763.3 542.3 790.7 540.7 818 537.8C845.3 535 872.7 531 886.3 529L900 527L900 601L886.3 601C872.7 601 845.3 601 818 601C790.7 601 763.3 601 736.2 601C709 601 682 601 654.8 601C627.7 601 600.3 601 573 601C545.7 601 518.3 601 491 601C463.7 601 436.3 601 409 601C381.7 601 354.3 601 327 601C299.7 601 272.3 601 245.2 601C218 601 191 601 163.8 601C136.7 601 109.3 601 82 601C54.7 601 27.3 601 13.7 601L0 601Z" fill="#00b3b7"></path><path d="M0 565L13.7 563.5C27.3 562 54.7 559 82 557.8C109.3 556.7 136.7 557.3 163.8 557.5C191 557.7 218 557.3 245.2 559.3C272.3 561.3 299.7 565.7 327 566.8C354.3 568 381.7 566 409 565C436.3 564 463.7 564 491 561.2C518.3 558.3 545.7 552.7 573 551.8C600.3 551 627.7 555 654.8 556.7C682 558.3 709 557.7 736.2 559.5C763.3 561.3 790.7 565.7 818 565.2C845.3 564.7 872.7 559.3 886.3 556.7L900 554L900 601L886.3 601C872.7 601 845.3 601 818 601C790.7 601 763.3 601 736.2 601C709 601 682 601 654.8 601C627.7 601 600.3 601 573 601C545.7 601 518.3 601 491 601C463.7 601 436.3 601 409 601C381.7 601 354.3 601 327 601C299.7 601 272.3 601 245.2 601C218 601 191 601 163.8 601C136.7 601 109.3 601 82 601C54.7 601 27.3 601 13.7 601L0 601Z" fill="#00be99"></path><path d="M0 586L13.7 585.7C27.3 585.3 54.7 584.7 82 584C109.3 583.3 136.7 582.7 163.8 582.3C191 582 218 582 245.2 581.5C272.3 581 299.7 580 327 578C354.3 576 381.7 573 409 571.8C436.3 570.7 463.7 571.3 491 573.3C518.3 575.3 545.7 578.7 573 580.3C600.3 582 627.7 582 654.8 579.8C682 577.7 709 573.3 736.2 573.7C763.3 574 790.7 579 818 580.8C845.3 582.7 872.7 581.3 886.3 580.7L900 580L900 601L886.3 601C872.7 601 845.3 601 818 601C790.7 601 763.3 601 736.2 601C709 601 682 601 654.8 601C627.7 601 600.3 601 573 601C545.7 601 518.3 601 491 601C463.7 601 436.3 601 409 601C381.7 601 354.3 601 327 601C299.7 601 272.3 601 245.2 601C218 601 191 601 163.8 601C136.7 601 109.3 601 82 601C54.7 601 27.3 601 13.7 601L0 601Z" fill="#1bc771"></path></svg>