<svg id="visual" viewBox="0 0 960 540" width="960" height="540" xmlns="http://www.w3.org/2000/svg" xmlns:xlink="http://www.w3.org/1999/xlink" version="1.1"><rect x="0" y="0" width="960" height="540" fill="#000005"></rect><path d="M768 540L759.7 527.2C751.3 514.3 734.7 488.7 741.5 463C748.3 437.3 778.7 411.7 793.7 386C808.7 360.3 808.3 334.7 786.3 308.8C764.3 283 720.7 257 690.2 231.2C659.7 205.3 642.3 179.7 630.2 154C618 128.3 611 102.7 596.5 77C582 51.3 560 25.7 549 12.8L538 0L960 0L960 12.8C960 25.7 960 51.3 960 77C960 102.7 960 128.3 960 154C960 179.7 960 205.3 960 231.2C960 257 960 283 960 308.8C960 334.7 960 360.3 960 386C960 411.7 960 437.3 960 463C960 488.7 960 514.3 960 527.2L960 540Z" fill="#0066FF" stroke-linecap="round" stroke-linejoin="miter"></path></svg>