<svg id="visual" viewBox="0 0 540 960" width="540" height="960" xmlns="http://www.w3.org/2000/svg" xmlns:xlink="http://www.w3.org/1999/xlink" version="1.1"><rect x="0" y="0" width="540" height="960" fill="#000005"></rect><path d="M255 960L252.3 937.2C249.7 914.3 244.3 868.7 255.8 823C267.3 777.3 295.7 731.7 289.5 686C283.3 640.3 242.7 594.7 246.3 548.8C250 503 298 457 322.5 411.2C347 365.3 348 319.7 337 274C326 228.3 303 182.7 286.2 137C269.3 91.3 258.7 45.7 253.3 22.8L248 0L540 0L540 22.8C540 45.7 540 91.3 540 137C540 182.7 540 228.3 540 274C540 319.7 540 365.3 540 411.2C540 457 540 503 540 548.8C540 594.7 540 640.3 540 686C540 731.7 540 777.3 540 823C540 868.7 540 914.3 540 937.2L540 960Z" fill="#0066FF" stroke-linecap="round" stroke-linejoin="miter"></path></svg>